<svg width="1024" height="1024" viewBox="0 0 1024 1024" fill="none" xmlns="http://www.w3.org/2000/svg">
<path d="M512 962C760.528 962 962 760.528 962 512C962 263.472 760.528 62 512 62C263.472 62 62 263.472 62 512C62 760.528 263.472 962 512 962Z" fill="#FF66AB"/>
<path d="M512 962C760.528 962 962 760.528 962 512C962 263.472 760.528 62 512 62C263.472 62 62 263.472 62 512C62 760.528 263.472 962 512 962Z" fill="url(#paint0_linear_11_20)" fill-opacity="0.2"/>
<mask id="mask0_11_20" style="mask-type:alpha" maskUnits="userSpaceOnUse" x="62" y="62" width="900" height="900">
<path d="M512 962C760.528 962 962 760.528 962 512C962 263.472 760.528 62 512 62C263.472 62 62 263.472 62 512C62 760.528 263.472 962 512 962Z" fill="#FF66AB"/>
<path d="M512 962C760.528 962 962 760.528 962 512C962 263.472 760.528 62 512 62C263.472 62 62 263.472 62 512C62 760.528 263.472 962 512 962Z" fill="url(#paint1_linear_11_20)" fill-opacity="0.2"/>
</mask>
<g mask="url(#mask0_11_20)">
<path fill-rule="evenodd" clip-rule="evenodd" d="M406.438 151.1L285.829 360.001L232.638 267.872L49.1974 585.6H133.472L11.1783 797.418H344.083L301.75 870.74H668.631L576.127 710.518H756.632L736.25 745.822H1103.13L1059.23 669.784H1247.06L1063.62 352.056L969.704 514.72L919.69 428.094L884.586 488.896L735.028 229.853L574.888 507.222L552.721 468.828H589.878L406.438 151.1ZM761.828 710.518L744.044 741.322H1095.34L1054.03 669.784H880.178L967.106 519.22L919.69 437.094L887.184 493.396L918.468 547.581H855.9L815.707 617.197L869.587 710.518H761.828ZM813.109 621.697L861.792 706.018H764.426L813.109 621.697ZM810.511 617.197L759.23 706.018H573.529L542.014 651.434L542.395 650.775H657.768L600.082 550.859L601.974 547.581H770.319L810.511 617.197ZM813.109 612.697L850.704 547.581H775.515L813.109 612.697ZM772.917 543.081H853.302L881.988 493.396L735.028 238.853L577.486 511.722L595.591 543.081H599.376L686.146 392.791L772.917 543.081ZM604.572 543.081H767.721L686.146 401.791L604.572 543.081ZM594.886 550.859L592.993 547.581H551.587L572.29 511.722L547.525 468.828H401.131L374.895 514.269L416.078 585.6H333.713L298.682 646.275H431.346L485.191 553.012L539.036 646.275H539.797L594.886 550.859ZM544.993 646.275H649.974L597.484 555.359L544.993 646.275ZM536.818 651.434L536.437 650.775H433.944L363.669 772.494L378.059 797.418H349.279L309.544 866.24H660.837L570.931 710.518H502.706L536.818 651.434ZM568.333 706.018L539.416 655.934L510.5 706.018H568.333ZM590.395 543.081L574.888 516.222L559.382 543.081H590.395ZM858.498 543.081L884.586 497.896L910.674 543.081H858.498ZM232.638 276.872L283.23 364.501L222.997 468.828H343.464L369.699 514.269L331.114 581.1H253.167L194.619 479.69L136.07 581.1H56.9916L232.638 276.872ZM285.829 369.001L230.791 464.328H340.866L285.829 369.001ZM288.427 364.501L346.062 464.328H398.533L474.328 333.047L550.123 464.328H582.084L406.438 160.1L288.427 364.501ZM372.297 509.769L348.66 468.828H395.935L372.297 509.769ZM474.328 342.047L544.927 464.328H403.729L474.328 342.047ZM138.668 585.6L18.9726 792.918H346.681L358.473 772.494L250.569 585.6H138.668ZM247.971 581.1H141.266L194.619 488.69L247.971 581.1ZM255.765 585.6L292.141 648.604L328.516 585.6H255.765ZM372.297 518.769L336.311 581.1H408.284L372.297 518.769ZM361.071 767.994L293.394 650.775H428.747L361.071 767.994ZM361.071 776.994L351.877 792.918H370.265L361.071 776.994ZM436.542 646.275L485.191 562.012L533.839 646.275H436.542ZM969.704 523.72L887.972 665.284H1051.44L969.704 523.72ZM1056.63 665.284L972.302 519.22L1063.62 361.056L1239.26 665.284H1056.63Z" fill="url(#paint2_linear_11_20)"/>
</g>
<path d="M708.337 329C717.239 329 723.343 335.613 723.343 344.769V429.461C723.343 438.617 717.239 445.23 708.337 445.23C699.182 445.23 693.332 438.617 693.332 429.461V344.769C693.332 335.613 699.182 329 708.337 329ZM708.337 499.148C697.401 499.148 688.754 490.501 688.754 479.565C688.754 468.883 697.401 460.235 708.337 460.235C719.274 460.235 727.921 468.883 727.921 479.565C727.921 490.501 719.274 499.148 708.337 499.148Z" fill="white"/>
<path d="M653.529 369.947C662.685 369.947 668.535 376.56 668.535 385.461V441.669C668.535 483.126 642.975 499.148 611.946 499.148C580.663 499.148 555.104 483.126 555.104 441.669V385.461C555.104 376.56 560.954 369.947 570.11 369.947C579.012 369.947 585.115 376.56 585.115 385.461V439.635C585.115 462.27 594.652 471.171 611.946 471.171C628.987 471.171 638.523 462.27 638.523 439.635V385.461C638.523 376.56 644.627 369.947 653.529 369.947Z" fill="white"/>
<path d="M470.008 404.283C470.008 412.675 478.655 415.728 495.188 419.543C518.077 425.138 539.95 430.988 539.95 459.219C539.95 486.686 519.603 499.149 490.355 499.149C466.194 499.149 448.644 490.755 440.506 481.091C434.147 473.461 434.911 466.849 441.014 460.999C448.644 453.623 455.257 456.675 459.581 460.49C466.447 466.849 474.841 473.461 491.118 473.461C503.326 473.461 510.956 469.391 510.956 461.253C510.956 453.114 502.817 450.317 481.453 444.467C460.344 438.618 441.523 433.022 441.523 407.844C441.523 379.612 464.413 367.913 489.846 367.913C504.343 367.913 520.875 371.728 531.049 382.664C535.372 386.988 538.678 393.092 531.049 401.485C523.418 409.369 517.823 407.08 512.482 403.011C507.65 399.45 499.257 393.347 486.54 393.347C477.893 393.347 470.008 396.144 470.008 404.283Z" fill="white"/>
<path d="M358.968 499.149C322.297 499.149 296 471.082 296 433.319C296 395.3 322.297 367.489 358.968 367.489C395.639 367.489 421.936 395.3 421.936 433.319C421.936 471.082 395.639 499.149 358.968 499.149ZM358.968 471.082C380.198 471.082 393.468 454.751 393.468 433.319C393.468 411.885 380.198 395.3 358.968 395.3C337.737 395.3 324.468 411.885 324.468 433.319C324.468 454.751 337.737 471.082 358.968 471.082Z" fill="white"/>
<path d="M962 512C962 760.528 760.528 962 512 962C263.472 962 62 760.528 62 512C62 263.472 263.472 62 512 62C760.528 62 962 263.472 962 512ZM107 512C107 735.675 288.325 917 512 917C735.675 917 917 735.675 917 512C917 288.325 735.675 107 512 107C288.325 107 107 288.325 107 512Z" fill="white"/>
<path d="M301.751 623.076C301.751 633.84 296.837 643.434 285.137 643.434H219.851C223.595 655.134 233.189 661.92 247.931 661.92C257.525 661.92 265.481 659.112 272.501 656.538C281.393 653.262 287.477 654.9 291.689 663.792C295.199 671.046 294.497 677.598 285.839 682.746C276.479 687.894 262.439 691.872 246.527 691.872C207.449 691.872 181.709 666.132 181.709 631.266C181.709 595.464 210.491 570.66 244.187 570.66C275.309 570.66 301.751 591.486 301.751 623.076ZM219.617 618.396H267.119C266.651 609.972 258.461 598.272 243.719 598.272C231.551 598.272 223.127 606.696 219.617 618.396ZM423.042 524.562C433.806 524.562 441.294 532.752 441.294 543.75V636.414C441.294 668.706 412.98 691.872 380.22 691.872C343.716 691.872 314.934 668.94 314.934 631.266C314.934 593.592 346.056 570.66 376.008 570.66C391.686 570.66 399.408 577.212 403.386 580.722H404.79V543.75C404.79 532.752 412.278 524.562 423.042 524.562ZM405.024 632.904V630.564C405.024 614.652 394.962 602.952 379.518 602.952C364.308 602.952 351.906 614.184 351.906 631.032C351.906 646.242 362.202 659.112 379.284 659.112C394.962 659.112 405.024 648.114 405.024 632.904ZM480.002 558.258C468.068 558.258 458.942 549.366 458.942 537.432C458.942 525.498 468.068 516.606 480.002 516.606C491.936 516.606 500.828 525.498 500.828 537.432C500.828 549.366 491.936 558.258 480.002 558.258ZM480.002 572.532C490.766 572.532 498.254 580.488 498.254 591.486V671.046C498.254 682.044 490.766 690 480.002 690C469.238 690 461.516 682.044 461.516 671.046V591.486C461.516 580.488 469.238 572.532 480.002 572.532ZM586.951 656.538C597.481 656.538 604.735 662.388 604.735 673.386C604.735 684.15 597.481 690 586.951 690H581.101C550.681 690 535.237 675.258 535.237 642.966V605.76H531.727C521.197 605.76 514.177 599.208 514.177 589.146C514.177 579.084 521.197 572.532 531.727 572.532H535.237V553.812C535.237 542.814 542.725 534.624 553.723 534.624C564.487 534.624 571.975 542.814 571.975 553.812V572.532H586.483C597.247 572.532 604.735 579.084 604.735 589.146C604.735 599.208 597.247 605.76 586.483 605.76H571.975V639.924C571.975 650.922 575.251 656.538 584.377 656.538H586.951ZM678.177 691.872C641.673 691.872 614.061 666.6 614.061 631.266C614.061 596.166 641.673 570.66 678.177 570.66C714.447 570.66 742.059 596.166 742.059 631.266C742.059 666.6 714.447 691.872 678.177 691.872ZM678.177 659.112C695.025 659.112 705.087 646.71 705.087 631.266C705.087 616.056 695.025 603.186 678.177 603.186C661.095 603.186 651.033 616.056 651.033 631.266C651.033 646.71 661.095 659.112 678.177 659.112ZM830.425 570.894C840.253 573.234 846.337 582.126 844.699 592.656C843.061 603.42 834.871 609.27 823.873 606.462C822.001 605.994 818.959 605.526 815.917 605.526C802.345 605.526 794.389 615.588 794.389 645.072V671.046C794.389 682.044 786.667 690 775.903 690C765.139 690 757.651 682.044 757.651 671.046V591.018C757.651 580.02 765.139 571.83 775.903 571.83C784.093 571.83 790.411 576.744 792.517 585.87V587.274H793.687C798.601 576.744 810.535 569.958 822.703 569.958C825.979 569.958 828.553 570.426 830.425 570.894Z" fill="white"/>
<defs>
<linearGradient id="paint0_linear_11_20" x1="512" y1="62" x2="512" y2="962" gradientUnits="userSpaceOnUse">
<stop stop-opacity="0"/>
<stop offset="1"/>
</linearGradient>
<linearGradient id="paint1_linear_11_20" x1="512" y1="62" x2="512" y2="962" gradientUnits="userSpaceOnUse">
<stop stop-opacity="0"/>
<stop offset="1"/>
</linearGradient>
<linearGradient id="paint2_linear_11_20" x1="629.118" y1="151.1" x2="629.118" y2="870.74" gradientUnits="userSpaceOnUse">
<stop stop-color="#F964A7"/>
<stop offset="1" stop-color="#B6346F"/>
</linearGradient>
</defs>
</svg>
